<svg version="1.0" xmlns="http://www.w3.org/2000/svg" width="797.333" height="556" viewBox="0 0 598 417"><path d="M303.2 28.9c-3.1 3.3-6.7 7-7.9 8.3-1.2 1.3-4.4 4.2-7.2 6.6-2.7 2.3-6.6 6.9-8.5 10.1-3.8 6.2-4.5 6.6-15.8 10-3.7 1.1-8.2 2.8-10 3.7-1.8.9-10.6 8.8-19.4 17.6-18.6 18.2-19 18.4-28.2 12.3-2.8-1.9-7.6-5.1-10.4-7-6.6-4.4-11.6-4.6-19.1-.9-9.4 4.8-15.1 9-23.2 17-6 6-10 9-15.8 11.9-6.6 3.2-8.7 4.9-13.3 10.6-4.7 5.9-8.8 9.9-20.9 20.3l-3 2.6 3-.6c13.1-2.8 28.1-9.7 34.6-16 2.5-2.5 6.8-5.9 9.4-7.7 2.7-1.8 10.3-9.2 16.9-16.5 6.5-7.4 13.6-14.5 15.7-15.9 3.7-2.4 4-2.5 6.3-.9 1.4.8 4.2 4.1 6.2 7.2 2.4 3.6 5.7 6.9 9.1 9.1 3.8 2.4 5.3 4 5.3 5.6 0 4-5.1 20-8.2 26-1.7 3.1-2.9 5.9-2.7 6.1.2.3 3.9-2.6 8.2-6.2 8-6.9 7.8-6.6 14.2-21.9 1.1-2.6 4.9-7.2 10.4-12.5 4.8-4.6 10.1-10.8 11.8-13.8 5.4-9.5 10.1-14 18-17.7 8.2-3.8 8.3-3.8 8.3-1.8 0 2.9-14.6 27.9-19.2 33.1-4.3 4.6-5.9 7.4-4.3 7.4 4.5 0 15.9-10.2 17.4-15.6.5-1.9 4.7-9.2 9.4-16.2 4.6-7 9.5-15.3 10.8-18.5 1.8-4.3 3.8-7.1 7.8-10.5 6.4-5.6 10.3-9.4 15.2-15 2.9-3.5 4.2-4.2 7.1-4.2 5.6 0 12.2 5.9 16.2 14.5 1.8 3.8 3.5 8.2 3.9 9.6.6 2.4 4.8 5.7 14.1 11.4 3.9 2.4 9.5 9.1 13.1 15.7 3.1 5.8 3.1 7.3.3 9.2-3 2.2-8.4 2-13.7-.4-7.3-3.3-8.8-2.9-16.6 5.3-3.8 4.1-9.1 8.8-11.6 10.5-5.2 3.5-12.2 11-16.8 17.9-5 7.5-3.5 7.3 3.7-.4 5.2-5.5 7.7-7.4 10.7-8.1 2.6-.6 5.8-2.7 9.3-6 2.9-2.8 7.4-6.4 9.9-8.1l4.6-3.1 3.1 1.9c1.7 1.1 5.3 3.2 7.9 4.7 5.3 3.1 12.5 12.1 17.6 22.2 1.7 3.3 3.5 6.3 4.1 6.7 1.8 1.1 0-4.5-4.1-12.6-2.2-4.1-3.9-8.6-3.9-9.9 0-1.2 1.1-4.8 2.4-7.9 1.4-3.1 3.2-7.8 4.2-10.5 2.1-5.9 12-16.9 17.3-19.4 2.6-1.3 4.3-3.2 6.4-7.2 2.9-5.8 5-8 7.8-8 2.9 0 14.8 11.1 18.6 17.3 3.9 6.5 6.1 7.7 13.4 7.7 7.6 0 12.3 3.4 16.1 11.8 3.5 7.8 5.7 17.4 5.9 25.2v5.5l1.3-3.5c.7-1.9 1.6-6.2 2-9.5.9-6.6 2.7-9.5 6.2-9.5 1.8 0 3.7 2 8.3 8.7 3.3 4.9 7.6 10.1 9.6 11.6 2 1.6 5.6 6 8 9.8 7.8 12 14.4 17.9 20.1 17.9 1.4 0 1.5-.2.3-1.9-.8-1-5-7.2-9.4-13.7-4.4-6.4-11.5-15.5-15.8-20.2-4.3-4.6-8.6-10-9.6-12.1-2.8-5.3-5-6.8-11.4-7.4-7.1-.7-10-2.5-12.7-7.7-2.3-4.5-6.2-6.8-15.8-9.5-6.2-1.8-6.5-2.1-18.7-15.5-7-7.8-13.8-14.3-15.5-15-2.9-1.2-3.3-1.1-6.3 1.8-1.8 1.8-4.6 5.4-6.2 8.1-1.7 2.8-4.3 5.6-6 6.4-1.7.8-4.4 3.4-6 5.8-4.7 7.2-7.7 9.9-10.5 9.9-3.1 0-7.4-4.3-11.4-11.3-1.5-2.7-4.1-5.7-5.8-6.7-4.9-3-16.5-16.4-19.7-22.9-4.5-9.1-9.6-16.6-12.9-19-5-3.5-7.6-2.8-14 3.8zM64.1 214.3c-8.5 21.1-18.9 46.1-22 52.9-2.4 5.2-5.3 7.8-8.9 7.8-1.8 0-2.3.5-2 2.1.3 2 .8 2.1 13.8 2.1 12.5 0 13.5-.1 13.5-1.9 0-1.3-1.2-2.1-4.5-2.9-5.7-1.3-6-3.3-2.2-12.9l2.8-7 16-.3 16.1-.2 3.1 8c1.8 4.5 3.2 8.9 3.2 9.9 0 1.9-2.6 3.1-6.7 3.1-1.7 0-2.3.6-2.3 2.2v2.3h18.5c18.4 0 18.5 0 18.5-2.2 0-1.7-.8-2.4-3.5-2.9-3.1-.6-4-1.4-6.6-6.6-1.7-3.3-4.5-9.6-6.3-14.1-1.9-4.5-6.2-14.7-9.5-22.7-3.4-8-8.1-19.1-10.4-24.8L80.5 196h-9l-7.4 18.3zm13.2 17.4c3.2 7.5 5.5 14.3 5.3 15-.6 1.6-23.1 1.9-24.1.4-.3-.6 1.8-6.5 4.6-13.3 2.8-6.8 5.3-13.1 5.6-14.1 1.1-3.8 3-1.1 8.6 12zM139 198.7c0 2 .5 2.3 3.8 2.3 7 0 6.7-1.7 7 35.2.2 18.3 0 34.3-.3 35.5-.3 1.2-1.9 3-3.6 3.8-1.7.9-2.9 2.1-2.7 2.6.2.6 11.2 1.1 29.6 1.2 23.7.1 29.5-.1 30.1-1.2.5-.7 1.2-4.5 1.5-8.5.4-3.9.9-7.9 1.2-8.9.8-2.4-2.5-3.5-4.1-1.3-.7.9-1.6 3.7-1.9 6.1-.4 2.4-1.4 4.9-2.2 5.6-1.1.9-5.9 1.3-15.7 1.3l-14.2.1-.9-5.5c-1-6.4.2-62.1 1.4-64 .5-.8 2.8-1.6 5.2-1.9 3.3-.5 4.4-1.1 4.6-2.6.3-1.9-.3-2-19.3-2l-19.5-.1v2.3zM226.3 197.7c-.8 2.1.7 3.3 4.1 3.3 6.1 0 6.1-.1 6.1 37.1 0 24.9-.3 34.1-1.2 35-.7.7-2.9 1.5-5 1.8-2.8.5-3.8 1.1-3.8 2.5 0 1.8 1.1 1.9 19.5 1.8 18-.1 19.5-.3 19.5-1.9 0-1.4-1.1-1.9-4.9-2.5-2.7-.4-5.3-1.1-5.8-1.6-1.2-1.2-2.2-57-1.1-64.7l.8-6 6.2-.3c11.5-.5 16.3 4.3 16.3 16.3 0 11-5 16.5-15 16.5-4.6 0-5 1.6-.9 3.8 3 1.6 12.3.9 17.6-1.3 9.6-4 15.3-12.4 15.3-22.7 0-9-3.6-14.3-11.5-16.9-5.5-1.8-55.5-2-56.2-.2zM313 198.7c0 2 .5 2.3 3.9 2.3 7.4 0 7.2-1 6.9 37.5-.2 18.9-.6 34.6-.9 34.9-.3.4-2.6 1-5 1.4-3.3.6-4.5 1.2-4.7 2.7-.3 1.9.3 2 19 1.8 13.3-.2 19.4-.6 19.7-1.4.5-1.5-1.8-2.9-5.1-2.9-5.8 0-5.8 0-5.8-36.9 0-25.4.3-34.1 1.3-35.4.6-.9 3-1.7 5.2-1.9 3.2-.2 4-.7 4-2.2 0-1.9-.9-2-19.2-2l-19.3-.1v2.2zM373 198.7c0 2 .5 2.3 3.9 2.3 7.4 0 7.3-1 6.9 37-.2 26.2-.6 34.1-1.6 35.3-.8.9-3 1.7-5 1.9-2.8.2-3.8.8-4 2.3-.3 1.9.2 2 13.5 1.8 12.6-.1 13.8-.3 13.8-2 0-1.3-1-1.9-3.8-2.4-2-.3-4-.9-4.4-1.3-2-2-3.3-55.9-1.4-57 .5-.3 5.3 4.9 10.8 11.7 10.6 13 35.4 41.8 41.3 47.9 2.7 2.8 4.6 3.8 8.3 4.3l4.7.6v-37.8c0-42.5-.1-41.9 6.8-42.5 2.9-.2 3.7-.7 3.7-2.2 0-1.8-.9-2-14-2-13.3-.1-14 0-14 1.9 0 1.6.8 2.1 4 2.3 2.2.2 4.5.8 5.1 1.3 2.4 2 2.9 53.9.5 53.9-1.1 0-42.6-49.1-49.7-58.9-.2-.2-5.9-.4-12.8-.6l-12.6-.2v2.4zM525.8 199.7c-5.3 12.9-23.1 56-25.6 62.1-4.2 10.1-5.6 12-9.7 12.8-2.7.5-3.5 1.1-3.5 2.8 0 2 .3 2.1 13.2 1.9 12.4-.2 13.3-.3 13.6-2.2.3-1.6-.5-2.1-4-2.8-4.3-.9-4.3-.9-4.1-5.1.1-2.4 1.3-6.7 2.7-9.7l2.5-5.5h15.5c17.7 0 15.8-1 20.1 10.9 1.5 3.9 2.3 7.6 2 8.1-.3.6-2.4 1.3-4.6 1.6-3.1.5-3.9 1.1-3.9 2.8 0 2.1.3 2.1 18.2 1.9 17.1-.1 18.3-.3 18.6-2 .2-1.5-.6-2.1-3.5-2.9-5-1.2-4.5-.3-29.1-58.9l-8-19-4.4-.3c-4.3-.3-4.5-.2-6 3.5zm3.3 23c1.1 2.7 2.4 5.7 2.9 6.8 4.2 9.5 6.9 16.9 6.4 17.6-.8 1.3-23.1 1.1-23.9-.2-.6-.9.9-5.6 5.7-16.9 3.8-9 5.3-12 6.1-12 .4 0 1.7 2.1 2.8 4.7zM152.1 335.7c-6.4 1.3-10.7 7.5-9.5 13.8.8 4.5 3.9 6.4 11.6 7.2 7.9.8 11.4 3.7 10.4 8.6-.3 1.8-1.7 4.2-3.2 5.4-3.5 3.2-1.3 2.9 2.5-.2 4.2-3.6 5.7-8.5 3.7-12.3-1.8-3.5-2.8-4-11.5-5.2-7.4-1-10.1-3.2-10.1-8.2 0-4.6 3.9-7.8 9.5-7.8 5.4 0 8.3 1.3 9.5 4.3.8 2 .9 1.9.9-.9.1-1.8-.5-3.4-1.3-3.7-2.3-.9-10-1.5-12.5-1zM37 336.9c0 .6.8 1.1 1.9 1.1 1.1 0 2.1.9 2.5 2.2.8 3.3.7 29.1-.2 30.4-.4.7-1.6 1.4-2.7 1.7-1.1.2 1.4.5 5.5.5s6.6-.3 5.5-.5c-1.1-.3-2.3-1-2.7-1.7-.9-1.3-1.1-28.8-.2-31 .4-1.2 2-1.6 5.5-1.6 5.9 0 8.9 2.4 8.9 7.1 0 3.9-4.8 8.9-8.5 8.9-1.5 0-2.5.3-2.3.8.2.4 3.2 4.6 6.8 9.5 6 8 6.8 8.7 9.9 8.7 2.9 0 3.2-.2 1.9-1.3-2.5-2-12.8-15.3-12.8-16.5 0-.7 1.1-1.4 2.5-1.8 3.2-.8 7.5-5.9 7.5-8.9 0-1.3-1.1-3.7-2.4-5.2-2.4-2.7-2.7-2.8-14.5-3.2-8.4-.2-12.1 0-12.1.8zM92 337c0 .5.8 1 1.9 1 1.1 0 2.1.9 2.5 2.2.8 3.3.7 29.1-.2 30.4-.4.7-1.6 1.4-2.7 1.7-1.1.2 4.4.5 12.3.6l14.2.1v-3.8l-.1-3.7-1.4 3.3-1.4 3.3-7.8-.3-7.8-.3-.3-8.3-.3-8.2h6.1c5.4 0 6.2.3 7 2.2.7 1.8.9 1.3.9-2.7 0-4.1-.2-4.6-.9-2.7-.9 2.1-1.5 2.3-6.7 2l-5.8-.3v-15l6.8-.3c7.1-.3 10.3.9 9.3 3.5-.3.7-.1 1.3.4 1.3.6 0 1-1.6 1-3.5V336h-13.5c-8.3 0-13.5.4-13.5 1zM190.1 339.7c.1 3.3.2 3.4.8 1.3.6-2.3 1.2-2.5 6.1-2.5h5.5l.3 14.5c.3 16.8 0 18.7-3.1 19.3-1.2.2 1.2.4 5.3.5 4.5 0 6.5-.3 5-.7l-2.5-.7-.3-16.7-.2-16.7h5.5c5.2 0 5.5.1 5.5 2.5 0 1.4.5 2.5 1 2.5.6 0 1-1.6 1-3.5V336h-30l.1 3.7zM258.1 342.2c-1.5 3.5-5 11.4-7.7 17.7-3.2 7.3-5.6 11.6-6.9 12.1-1.4.6-.1.8 4 .8 3.3 0 5-.3 3.8-.5-2.8-.5-2.9-2.7-.7-8.3l1.6-4H268l1.5 3.7c2.9 6.8 2.9 8.1.3 8.6-1.2.2.5.5 4 .6 5.9.1 6.1 0 4.5-1.7-1-.9-4.9-9.2-8.8-18.4-3.8-9.2-7.4-16.8-7.8-16.8-.5 0-2.1 2.8-3.6 6.2zm6 8.2c1.6 3.7 2.9 7 2.9 7.2 0 .2-2.9.4-6.5.4s-6.5-.3-6.5-.6c0-2 5.5-14.4 6.3-14.1.5.1 2.2 3.3 3.8 7.1zM303 337c0 .5.9 1 1.9 1 2.8 0 3.1 1.8 3.1 16.6 0 12.9.1 13.6 2.4 15.9 2.8 2.8 7.8 3.9 14.7 3.3 9.5-.9 11.9-5.6 11.9-22.8 0-11.9 0-12.1 2.5-13 3.9-1.5 3-2-3.5-2-5.8 0-8.4 1.5-3.7 2.2 2.1.3 2.2.7 2.5 13.4.2 12 .1 13.3-1.8 15.7-3 3.7-8.9 5.4-14 3.8-6.4-1.9-7.1-3.8-6.8-19.2.3-13 .4-13.4 2.6-13.7 5-.7 1.8-2.2-4.8-2.2-4 0-7 .4-7 1zM364.4 336.9c.4.6 1.3 1.1 2.1 1.1 2.2 0 2.5 2.5 2.5 18.1 0 14.6-.1 15-2.2 15.9-1.7.6-.4.9 4.7.8 3.9 0 6-.3 4.9-.5-1.2-.2-2.5-1.4-2.8-2.6-1-3.8-.7-27.7.4-29.8 1.6-2.9 10.3-2.7 12.4.3 3.8 5.4.2 13.3-6.4 14l-2.9.3 7 9.2c6.1 8.2 7.3 9.3 10 9.3h3.1l-4.4-5.3c-10.7-12.7-10.6-12.6-4.7-15.6 5.2-2.6 6.4-9.3 2.3-13.2-2.4-2.2-3.5-2.4-14.6-2.8-8.7-.2-11.9 0-11.4.8zM429.8 353.2c-5.6 12.8-8.1 17.6-9.9 18.5-2.1 1.1-1.8 1.3 3.6 1.2 4.7 0 5.5-.2 3.7-1-2.5-.9-2.5-1.7.4-8.7l1.3-3.2H444l2 4c2.7 5.2 2.6 7.7-.2 8.3-1.3.2.9.5 4.7.5 3.9 0 6.3-.2 5.5-.5-2.1-.8-2.1-.9-10.1-19.6-3.9-9.2-7.5-16.7-7.9-16.7-.4 0-4.1 7.8-8.2 17.2zm10.5-3.4c1.5 3.7 2.7 7 2.7 7.4 0 .5-2.9.8-6.5.8s-6.5-.2-6.5-.4.9-2.5 2.1-5.2c1.1-2.7 2.4-5.9 2.9-7.2.5-1.2 1.3-2.2 1.7-2.2.5 0 2 3 3.6 6.8zM479 336.5c0 .3 1.1 1 2.5 1.5l2.5 1v16c0 15.7 0 16.1-2.2 17-1.8.7-.8.9 3.7.8 4 0 5.2-.2 3.5-.7-2.5-.7-2.5-.7-2.8-14.9-.1-7.8.1-14.2.6-14.2s5.6 6 11.4 13.2c12.7 15.9 14.4 17.8 16.3 17.8 1.2 0 1.5-3.1 1.7-17.8.3-17.5.3-17.7 2.6-18 4.6-.7 2-2.2-3.8-2.2s-8.4 1.5-3.7 2.2c2.1.3 2.2.6 2.5 14.5.1 7.9-.1 14.3-.6 14.3s-6.5-7-13.3-15.5L487.5 336h-4.2c-2.4 0-4.3.2-4.3.5zM543.1 339.7c.1 3.7.1 3.8 1.1 1 .9-2.5 1.4-2.7 6.4-2.7h5.4l-.2 16.7-.3 16.7-2.5.7c-1.5.4.5.7 5 .7 4.1-.1 6.5-.3 5.3-.5-3.1-.6-3.4-2.5-3.1-19.3l.3-14.5h5.5c4.9 0 5.5.2 6.1 2.5.6 2.1.7 2 .8-1.3l.1-3.7h-30l.1 3.7zM143 370.1c0 3.2 2 3.9 10 3.8l5.5-.2-5.9-.7c-4.5-.6-6.4-1.3-7.7-3.1l-1.9-2.4v2.6z"/></svg>